<?xml version="1.0" encoding="utf-8"?>
<!-- Generator: Adobe Illustrator 18.1.1, SVG Export Plug-In . SVG Version: 6.00 Build 0)  -->
<!DOCTYPE svg PUBLIC "-//W3C//DTD SVG 1.1//EN" "http://www.w3.org/Graphics/SVG/1.1/DTD/svg11.dtd">
<svg version="1.1" id="Layer_1" xmlns="http://www.w3.org/2000/svg" xmlns:xlink="http://www.w3.org/1999/xlink" x="0px" y="0px"
	 viewBox="0 0 283.5 283.5" enable-background="new 0 0 283.5 283.5" xml:space="preserve">
<g>
	<path fill="#1D1D1B" d="M243.8,144.8c-1.1-1.6-2.4-2.9-3.9-4.1c0.8,0.1,1.6,0.3,2.5,0.3c1.2,0.1,2.3,0.2,3.4,0.2
		c7.1,0,13.5-2.2,18.5-6.4c6.7-5.6,10.8-14.8,10.4-23.5c-0.3-6.8-3.3-12.4-8.4-15.9c-6.7-4.6-17.2-4.1-23.1,1.1
		c0.1-0.3,0.1-0.5,0.2-0.8c1.5-7.9-1-16.9-6.3-22.9c-12.5-14-33.2-11.9-48.2-3.6c-3.7,2.2-7.5,4.3-11.4,6.3
		c-0.7-0.9-1.5-1.8-2.4-2.7c-0.2-0.2-0.4-0.4-0.6-0.5c-5.4-4.7-13.3-7-20.4-5.7c-12,2.1-19.8,11.2-23.7,21.9
		c-2-5.3-5.8-9.9-10.6-12.8c0.3-14.6,0.8-24.6,1.7-30.1c1.3-8.2,3.7-14,7.3-17.2c3.6-3.3,9.9-5.6,18.7-6.7c7.1-1.1,11.6-2,13.4-2.9
		c1.8-0.9,2.7-2.3,2.7-4.5c0-3.8-2.8-5.7-8.3-5.7c-2.4,0-6.9,0.1-13.5,0.4c-18.2,1-32.4,1.5-42.5,1.5l-65.7-2c-6.5,0-9.7,2-9.7,5.9
		c0,4,2.8,6.1,8.5,6.3c8,0.4,14.3,2.3,18.7,5.6c4.4,3.4,7.8,8.7,10.2,16.1c2.4,7.3,3.6,19.1,3.6,35.4c0,2.9,0,5.8,0,8.7
		c-3.5,3-6.9,6.2-10.1,9.5c-12.3-2.4-24.7-0.6-35.8,8.7C12.7,110.2,9,118.7,9.4,127c0.3,7.1,3.5,13,8.9,16.8c0.5,0.4,1.1,0.7,1.7,1
		H9.3v8.5h55.4h55h155v-8.5H243.8z M260.3,112.3c-1.1,0.3-1.8,1.3-1.8,2.5c0,1.4-0.7,2.5-1.9,3.5c-2.8,2.1-8,2.4-10.9,0.6
		c-1.6-1-2.7-3.4-3-6.4c-0.4-4.6,1.1-9.4,3.8-11.9c4.1-3.8,12.3-4.3,17.1-1c4.8,3.3,6,8.4,6.2,12c0.3,7.2-3,14.7-8.6,19.3
		c-4.7,3.9-11.2,5.7-18.2,5c-7.3-0.7-14.3-4.1-18.6-8.9c0,0,0,0,0-0.1c0.3-6.3-1.7-12.6-5.4-17.6c4.7,1.9,10.3,2,14.8-0.2
		c1.6-0.8,3.1-1.8,4.3-3c-0.5,2.2-0.6,4.5-0.4,6.8c0.5,4.7,2.4,8.4,5.4,10.2c4.7,2.9,12.1,2.5,16.6-0.9c2.6-1.9,3.9-4.6,4-7.6
		C263.6,113.1,261.9,111.8,260.3,112.3z M228.7,136.8c-2.7-0.1-5.4,0.4-7.8,1.3c1-1.5,1.8-3.2,2.4-5
		C224.9,134.5,226.7,135.7,228.7,136.8z M179.9,79.7c4-2.1,7.8-4.2,11.4-6.3c13.3-7.4,31.5-9.4,42.3,2.6c4.4,5,6.5,12.4,5.2,18.9
		c-0.6,3.3-2.4,7.8-7.3,10.2c-4.9,2.4-12.3,0.9-15.5-3.2c-2.1-2.7-2.9-7.3-1.8-11.4c0.7-2.7,2-4.8,3.6-5.5c2.9-1.3,7.6-0.3,9.9,2
		c1.5,1.5,1.7,3.1,0.8,5.2l4.3,1.9c1.7-3.8,1-7.5-1.8-10.4c-3.7-3.7-10.4-5.1-15.1-3c-3,1.3-5.3,4.4-6.3,8.6
		c-1.1,4.4-0.7,9.1,1,12.7c-10.8-7.2-22.7-8-34.4-5.2c2.5-2.6,4.3-6,4.6-9.5C181.2,84.7,180.8,82.1,179.9,79.7z M154.9,70.9
		c6.1-1,12.9,1,17.4,5.2c0.7,0.7,1.5,1.5,2.2,2.5c1.5,2.1,2.5,4.8,2.2,8.2c-0.2,2.1-1.2,4.1-2.5,5.9c-2,2.5-4.8,4.4-7.6,4.7
		c-1.7,0.2-3.6-0.2-5.4-1.1c-1.1-1.3-2.4-2.5-3.8-3.5c-0.6-0.4-1.2-0.7-1.8-1c-1-1.4-1.5-2.9-1.3-4.1c0.4-2.9,3.5-6.1,6.5-6.8
		c1.9-0.4,3.3,0.2,4.4,1.9l3.6-2.4c-2.1-3.2-5.4-4.5-9-3.7c-4.7,1-9.1,5.7-9.8,10.3c-0.1,0.9-0.1,1.9,0.1,2.9
		c-5.8-1-12.2,0.5-16.2,4.3c-0.2,0.2-0.4,0.4-0.6,0.7C135.8,83.5,142.9,73,154.9,70.9z M138.4,122.3c4.1,0.7,8.8-0.2,12-2.6
		c2.7-2.1,4.1-5,3.9-8.2c2-1.2,4-2.3,6.1-3.4c0,0.3,0,0.6,0.1,0.9c0.2,4.3-1,8.8-3.2,12.7c0,0,0,0.1-0.1,0.1
		c-1.4,2.5-3.2,4.7-5.4,6.5c-8.3,6.9-18.7,7.6-28.6,4.8c2.5-1.4,4.9-3,7.2-4.7C133.1,126.4,135.7,124.3,138.4,122.3z M137.2,97.9
		c4.1-3.8,12-4.3,16.9-1.1c0.7,0.6,1.4,1.2,2.1,1.7c1.4,1.4,2.4,3,3,4.6c-7.7,3.8-15,8.6-21.9,13.6c-0.3-0.1-0.7-0.3-0.9-0.5
		c-1.6-1-2.7-3.4-3-6.4C133,105.3,134.5,100.5,137.2,97.9z M133,120.1c-1.8,1.5-3.7,3-5.6,4.4c-2.2,1.7-4.6,3.3-7.1,4.6
		c-0.2,0.1-0.4,0.2-0.5,0.3v-15c0.1,0,0.3-0.1,0.4-0.1c2.9-0.9,5-2.4,7.2-4.4C127.6,113.8,130.4,117.4,133,120.1z M64.9,105.9
		c-1.4-1.1-2.9-2.1-4.4-3c-0.1,0,0-0.2,0.1-0.2c1.5,0.5,2.9,1,4.3,1.5C64.9,104.8,64.9,105.4,64.9,105.9z M127.2,94.2
		c0.8,5-0.5,9.6-3.7,12.9c-0.9,0.9-2,1.6-3.4,2.2c-0.1,0.1-0.2,0.1-0.4,0.1v-8c0.1-0.7,0.1-1.4,0-2c0-6.5,0-12.5,0.1-18
		C123.7,84.6,126.4,89.2,127.2,94.2z M64.9,92.9c0,2.1,0,4.1,0,6.2c-1.6-0.6-3.2-1.1-4.8-1.6C61.6,95.9,63.3,94.4,64.9,92.9z
		 M21.1,139.6c-4.1-2.8-6.5-7.4-6.7-12.8c-0.3-6.8,2.7-13.7,7.9-18c7.1-5.9,14.7-8.4,22.6-8.5c0.2,0,0.2,0.3,0,0.3
		c-7.1,2-12.4,8.5-12.4,16.2c0,1.1,0.1,2.2,0.4,3.3c-2.2,0.2-4.6,0.9-6.5,2.4c-1.4,1.1-3.3,3.4-3.1,7.2c0.1,1.6,1.7,2.7,3.2,2.3
		c1.1-0.3,1.9-1.4,1.8-2.5c-0.1-1.8,0.8-2.6,1.1-2.9c1.8-1.6,5-1.6,5.7-1.4c0.2,0.1,0.4,0.3,0.6,0.4c0.3,0.4,0.6,0.7,1,1.1
		c0.5,0.8,1,1.7,1.3,2.8c0.8,2.7,0.5,5.7-0.7,7.9c-1,1.8-3.1,3.2-5.9,3.8C27.8,142,23.6,141.4,21.1,139.6z M36.3,144.8
		c2.4-1.2,4.3-2.8,5.5-4.9c1.6-2.8,2.1-6.1,1.6-9.5c0.5,0.1,1,0.2,1.6,0.3c5.7,0.7,10.9-2.8,12.7-8.3c1.9-5.6-1.2-10.9-5.9-12.6
		c-1.6-0.6-3.4,0.6-3.4,2.3v0.1c0,1.1,0.6,2,1.6,2.4c3.5,1.3,5.1,6.4-0.5,10.2c-0.9,0.6-2,1-3.1,1c-2.3,0-4.3-1-5.9-2.4
		c-0.3-0.4-0.6-0.7-1-1.1c-1.2-1.5-1.9-3.4-1.9-5.4c0-6.5,5.3-11.8,11.8-11.8c5.5,0,11,2.9,15.4,7.7c0,11.2-0.1,21.8-0.1,32H36.3z
		 M119.7,144.8v-7.5c0.2,0.1,0.4,0.1,0.6,0.2c11.8,3.8,24.7,3.2,34.9-5.3c0.3-0.3,0.7-0.6,1-0.9c1.6,6.9,7.7,12.1,15.1,12.1
		c0.8,0,1.6,0,2.4-0.1c6.1-0.7,11.9-4.1,16.5-8.3c0.3,1.8,0.8,3.4,1.6,4.9c1.2,2.1,3.1,3.8,5.5,4.9H119.7z M219.2,126.8
		c-0.2,5.5-2.6,10-6.7,12.8c-2.5,1.8-6.7,2.4-10.3,1.5c-2.8-0.6-4.9-2-5.9-3.8c-1.2-2.2-1.5-5.1-0.7-7.9c0.2-0.7,0.5-1.4,0.8-2
		c0.1-0.2,0.3-0.5,0.4-0.7c0.5-0.7,1-1.3,1.6-1.6c0.7-0.3,4-0.2,5.7,1.4c0.3,0.3,1.2,1.1,1.1,2.9c0,1.2,0.7,2.2,1.8,2.5
		c1.5,0.4,3.1-0.7,3.2-2.3c0.2-3.9-1.8-6.1-3.1-7.2c-3.5-2.8-8.8-2.9-11-1.8c-1.4,0.7-2.6,1.9-3.6,3.4h0c0,0-0.1,0.1-0.1,0.1
		c-0.1,0.2-0.2,0.4-0.3,0.6c-4.2,6.9-11.7,12.3-18.4,13.3c-0.8,0.1-1.6,0.2-2.4,0.2c-5.8,0-10.5-4.7-10.5-10.4
		c0-4.3,3.5-7.9,7.9-7.9c0.8,0,1.6,0.2,2.2,0.7c1.3,0.8,2.2,1.7,2.8,2.5c1.2,1.8,1,3.7,0,5c-0.4,0.6-1.1,1.1-1.8,1.4
		c-0.9,0.3-1.5,1.1-1.5,2v0.3c0,1.8,1.7,3,3.3,2.5c0,0,0.1,0,0.1,0c4.3-1.7,7-6.6,5.2-11.8c-1-2.8-2.9-4.9-5.2-6.2
		c-2.1-1.1-4.5-1.6-7.1-1.2c-0.6,0.1-1.1,0.2-1.7,0.4c0.5-2.3,0.7-4.6,0.6-6.8c0-1-0.2-2-0.3-3c2.9-1.3,5.7-2.4,8.6-3.3
		c13.1-4,26-3.3,37.5,6.3C216.5,113.1,219.5,120,219.2,126.8z M219.4,144.8c4.2-3.6,12-3.9,16.8-0.7c0.3,0.2,0.6,0.4,0.9,0.7H219.4z
		"/>
	<path fill="#1D1D1B" d="M64.6,173.3H9.3v8.5H20c-0.6,0.3-1.2,0.6-1.7,1c-5.4,3.7-8.6,9.7-8.9,16.8c-0.4,8.3,3.3,16.8,9.7,22.1
		c3.6,3,7.4,5.3,11.3,6.8c7.9,3.2,16.2,3.5,24.5,1.9c2.2,2.3,4.5,4.6,6.9,6.7c-0.1,0.5-0.2,0.9-0.3,1.3c-1.8,7.2-4.9,12.6-9.2,16.3
		c-4.4,3.6-10.6,6-18.8,7.2c-5.2,0.8-8.4,1.6-9.7,2.3c-1.3,0.7-2,2-2,3.9c0,4,2.5,5.9,7.5,5.9c1.7,0,4.4-0.1,8.1-0.4
		c15.2-1.5,34.9-2.2,59.2-2.2c69.7,0,121,0.9,154,2.6c3-15.3,5.5-28.6,7.5-39.8c3-0.3,5.9-1.3,8.4-3c5.1-3.5,8.1-9.2,8.4-15.9
		c0.4-8.7-3.7-17.9-10.4-23.5c0,0-0.1-0.1-0.1-0.1c0-0.3,0-0.5,0-0.8c0-3.8-1.8-5.7-5.3-5.7c-1.2,0-2.4,0.6-3.6,1.7
		c-2.9-0.9-6.1-1.4-9.4-1.4c-1.1,0-2.3,0.1-3.4,0.2c-0.8,0.1-1.6,0.2-2.3,0.3c1.5-1.2,2.8-2.6,3.8-4.1h30.9v-8.5h-155H64.6z
		 M154.4,215.1c0.2-3.3-1.2-6.2-3.9-8.2c-3.2-2.4-7.9-3.3-12-2.6c-2.7-2-5.3-4.1-7.9-6.2c-2.2-1.7-4.7-3.3-7.2-4.7
		c9.9-2.8,20.3-2.1,28.6,4.8c2.1,1.8,4,4,5.4,6.5c0,0,0,0.1,0.1,0.1c2.2,3.9,3.4,8.4,3.2,12.7c0,0.3,0,0.6-0.1,0.9
		C158.4,217.5,156.4,216.3,154.4,215.1z M159.3,223.5c-0.9,2.2-2.4,4.4-5,6.2c-4.8,3.3-13,2.9-17.1-1c-2.7-2.5-4.2-7.3-3.8-11.9
		c0.3-3,1.4-5.4,3-6.4c0.3-0.2,0.6-0.3,0.9-0.5C144.2,214.9,151.6,219.7,159.3,223.5z M127.4,202.2c1.8,1.5,3.7,3,5.6,4.4
		c-2.5,2-4.2,5.4-4.6,9.7c-0.1,0.6-0.1,1.2-0.1,1.8c-0.5-0.6-0.9-1.2-1.5-1.7c-1.8-1.9-4.3-3.3-7.1-4v-15c0.1,0,0.1,0.1,0.2,0.1
		C122.6,198.8,125.1,200.4,127.4,202.2z M63.3,222.9c-0.9,0.3-1.9,0.7-2.8,1c-0.1,0-0.2-0.1-0.1-0.2c1-0.5,2-1.2,2.9-1.8
		C63.4,222.2,63.3,222.6,63.3,222.9z M119.7,221.1v-3.9c1.5,0.6,2.8,1.4,3.7,2.4c3.2,3.3,4.5,7.9,3.7,12.9c-0.7,4.4-2.9,8.5-6,11.6
		C120.3,238.4,119.8,230.8,119.7,221.1z M44.9,226.4c-4.8-0.1-9.6-1-14.2-3.1c-2.9-1.3-5.7-3.1-8.5-5.4c-5.2-4.3-8.2-11.2-7.9-18
		c0.2-5.4,2.6-10,6.7-12.8c2.5-1.7,6.7-2.4,10.3-1.5c2.8,0.6,4.9,2,5.9,3.8c1.2,2.2,1.5,5.1,0.7,7.9c-0.3,1.1-0.8,2-1.3,2.8
		c-0.3,0.3-0.7,0.7-1,1.1c-0.2,0.2-0.4,0.3-0.6,0.4c-0.7,0.3-3.9,0.2-5.7-1.4c-0.3-0.3-1.2-1.1-1.1-2.9c0-1.2-0.7-2.2-1.8-2.6
		c-1.6-0.4-3.2,0.7-3.2,2.3c-0.2,3.9,1.8,6.2,3.1,7.3c1.9,1.5,4.3,2.3,6.5,2.4c-0.3,1.1-0.4,2.2-0.4,3.3c0,1.8,0.3,3.5,0.8,5.1
		c1.7,5.4,6.1,9.6,11.6,11.1C45.2,226.1,45.1,226.4,44.9,226.4z M49.4,221.6c-6.5,0-11.8-5.3-11.8-11.8c0-0.5,0-1,0.1-1.4
		c0.2-1.5,0.9-2.8,1.7-4c0.3-0.3,0.7-0.7,1-1.1c1.5-1.5,3.6-2.4,5.9-2.4c0.3,0,0.6,0,0.9,0.1c0.8,0.1,1.6,0.4,2.3,0.9
		c5.6,3.7,4,8.9,0.5,10.2c-1,0.4-1.6,1.3-1.6,2.4v0.1c0,1.7,1.7,2.9,3.4,2.3c4.7-1.7,7.8-7,5.9-12.6c-0.7-2.2-2-4.1-3.6-5.5
		c-2.4-2.1-5.7-3.2-9.1-2.8c-0.5,0.1-1.1,0.2-1.6,0.3c0.5-3.4-0.1-6.7-1.6-9.5c-1.2-2.1-3.1-3.8-5.5-4.9h28.2c0,0.5,0,1,0,1.5
		c-0.1,12.6-0.4,23.1-0.7,31.6C59.5,219.2,54.5,221.6,49.4,221.6z M60.1,229.1c0.9-0.3,1.9-0.6,2.8-0.9c-0.1,1.2-0.2,2.3-0.3,3.3
		C61.7,230.8,60.9,230,60.1,229.1z M191,254.3c-10.6,3.4-26.7,5-48.3,5c-8.8,0-14.9-1.8-18-5.3c-0.9-1-1.7-2.6-2.4-4.9
		c5-3.9,8.5-9.8,9.5-16.1c0.1-0.9,0.2-1.8,0.3-2.7c0.5,0.7,1.1,1.3,1.7,1.9c5.9,5.5,16.6,6.2,23.4,1.4c3-2.1,5.2-4.9,6.7-8.2
		c0.9,0.4,1.9,0.8,2.8,1.2c14.8,5.9,30.2,7.1,44-2.2c-1.7,3.7-2.1,8.4-1,12.7c0.6,2.3,1.6,4.3,2.8,5.9
		C205.6,248.3,198.4,252,191,254.3z M214.2,236.2c-1-4.1-0.3-8.7,1.8-11.4c3.2-4.1,10.6-5.6,15.5-3.2c0.5,0.3,1,0.6,1.5,0.9
		c-4.1,5.5-8,10-11.9,13.5c-1.7,1.5-3.3,3-5,4.4C215.3,239.4,214.6,237.9,214.2,236.2z M269.7,215c-0.2,3.6-1.4,8.7-6.2,12
		c-1.3,0.9-2.9,1.5-4.5,1.9c0.9-5.4,1.8-10.2,2.4-14.5c1.2-0.2,2.2-1.2,2.2-2.5c0-1.5-0.4-3-1.1-4.3c0.5-3.6,0.9-6.7,1.2-9.4
		C267.7,202.8,269.9,209.1,269.7,215z M242.9,190.7c3.2-0.3,6.4-0.1,9.3,0.6c0,0.1-0.1,0.2-0.1,0.3c-1.9,3.7-3.9,7.2-5.8,10.6
		c-1.2,0.3-2.3,0.8-3.2,1.4c-3,1.8-4.9,5.6-5.4,10.2c-0.1,0.8-0.1,1.7-0.1,2.5c-0.6,0.9-1.1,1.7-1.7,2.5c-0.7-0.5-1.4-0.9-2.2-1.3
		c-4.5-2.2-10.1-2.1-14.8-0.2c3.7-5,5.7-11.3,5.4-17.6c0,0,0,0,0-0.1C228.5,194.8,235.6,191.4,242.9,190.7z M220.9,188.6
		c2.4,0.9,5,1.3,7.6,1.3c-1.9,1-3.7,2.3-5.3,3.6C222.7,191.8,221.9,190.1,220.9,188.6z M237.1,181.8c-0.3,0.3-0.6,0.5-1,0.7
		c-4.7,3.3-12.7,2.9-16.9-0.7H237.1z M212.5,187c4.1,2.8,6.5,7.4,6.7,12.8c0.3,6.8-2.7,13.7-7.9,18c-13.1,10.9-28.1,10.3-43,4.3
		c-1-0.4-2.1-0.9-3.1-1.3c0.2-1,0.3-1.9,0.3-3c0.1-2.3-0.1-4.5-0.6-6.8c0.5,0.2,1.1,0.3,1.7,0.4c1.5,0.2,3,0.2,4.4-0.2
		c3.6-0.9,6.6-3.5,7.9-7.2c1.8-5.2-0.9-10.1-5.2-11.8c-0.1,0-0.2-0.1-0.3-0.1c-1.5-0.4-3.1,0.8-3.1,2.5v0.3c0,0.9,0.6,1.7,1.5,2
		c0.4,0.2,0.8,0.4,1.2,0.7c1.9,1.6,2.3,4.8-0.9,7.4c-0.4,0.3-0.7,0.6-1.2,0.8c-0.7,0.4-1.4,0.7-2.2,0.7c-4.3,0-7.9-3.5-7.9-7.9
		c0-5.8,4.7-10.4,10.5-10.4c0.8,0,1.6,0.1,2.4,0.2c6.7,1.1,14.2,6.4,18.4,13.3c0.1,0.2,0.2,0.4,0.3,0.6c0,0,0.1,0.1,0.1,0.1l0,0
		c1,1.5,2.2,2.7,3.6,3.4c2.2,1.1,7.5,1,11-1.8c1.4-1.1,3.3-3.4,3.1-7.3c-0.1-1.6-1.7-2.7-3.2-2.3c-1.1,0.3-1.9,1.4-1.8,2.6
		c0.1,1.8-0.8,2.6-1.1,2.9c-1.7,1.6-5,1.6-5.7,1.4c-0.6-0.3-1.1-0.9-1.6-1.6c-0.1-0.2-0.3-0.5-0.4-0.7c-0.3-0.6-0.6-1.3-0.8-2
		c-0.8-2.8-0.6-5.7,0.7-7.9c1-1.8,3.1-3.2,5.9-3.8C205.8,184.6,210,185.3,212.5,187z M197.4,181.8c-2.4,1.2-4.3,2.8-5.5,4.9
		c-0.8,1.5-1.4,3.2-1.6,4.9c-4.6-4.3-10.4-7.6-16.4-8.3c-0.9-0.1-1.7-0.2-2.6-0.2c-7.4,0-13.6,5.2-15.1,12.1c-0.3-0.3-0.6-0.6-1-0.9
		c-10.3-8.5-23.2-9.1-35-5.3c-0.1,0-0.3,0.1-0.4,0.1v-7.5H197.4z"/>
</g>
</svg>
